# xmcd
#
# Track frame offsets:
#	150
#	15210
#	30015
#	54515
#	70767
#	88140
#	105020
#	123127
#	136762
#	153427
#	168600
#	196822
#	210895
#	224767
#	240717
#
# Disc length: 3381
#
# Revision: 1
# Processed by: cddbd v1.5.1PL0 Copyright (c) Steve Scherf et al.
# Submitted via: FreeRIP 2.35 
# Normalized: r0:TDELIM( - )
#
DISCID=b30d330f
DTITLE=Several - Boxes Hits of the Seventies
DYEAR=1998
DGENRE=Pop
TTITLE0=New Seekers - I'd Like To Teach The World
TTITLE1=Dragon - Are You Old Enough
TTITLE2=Sailor - Girls, Girls, Girls
TTITLE3=Mi-Sex - Computer Games
TTITLE4=Gloria Gaynor - Never Can Say Goodbye
TTITLE5=Carl Douglas - Kung Fu Fighting
TTITLE6=Pussyfoot - Way You Do It
TTITLE7=Ellen Foley - We Belong To The Night
TTITLE8=Ritchie Family - Best Disco In Town
TTITLE9=Bonnie Tyler - It's A Heartache
TTITLE10=La Belle - Lady Marmalade
TTITLE11=Santa Esmeralda - Don't Let Me Be Misunderstood
TTITLE12=Eruption - I Can't Stand The Rain
TTITLE13=Chicago - If You Leave Me Now
TTITLE14=First Class - Beach Baby
EXTD=CD 2
EXTT0=
EXTT1=
EXTT2=
EXTT3=
EXTT4=
EXTT5=
EXTT6=
EXTT7=
EXTT8=
EXTT9=
EXTT10=
EXTT11=
EXTT12=
EXTT13=
EXTT14=
PLAYORDER=
